<svg id="Layer_1" data-name="Layer 1" xmlns="http://www.w3.org/2000/svg" viewBox="0 0 116.809 91.721"><defs><style>.cls-1{fill:#54aa47;}.cls-2{fill:#59a946;}.cls-3{fill:#0c8040;}</style></defs><path class="cls-1" d="M307.809,236.054l-42.128,81.958h14.81a3.624,3.624,0,0,1,.58,0c.048,0,.1,0,.147,0l.378-.051c.024,0,.047,0,.072,0l.013,0c.017,0,.033,0,.049,0a3.8,3.8,0,0,1,.547.036c.019,0,.039,0,.058,0h0l.321-.043c.036,0,.071,0,.108,0l.019,0,.073,0c.111,0,.223,0,.331.011.041,0,.081,0,.121,0,.173-.023.356-.03.538-.039l.433-.058c6.352-1.391,9.483-8.8,9.483-8.8L319.3,260.054Z" transform="translate(-265.681 -227.847)"/><path class="cls-2" d="M321.325,309.61c.461,0,.923-.006,1.384-.013.31-.008.62-.012.929-.023,4.469-.838,7.277-6.361,7.277-6.361l8.17-16.851h-24l-12,23.377,18.128-.143A1.105,1.105,0,0,0,321.325,309.61Z" transform="translate(-265.681 -227.847)"/><path class="cls-3" d="M338.574,234.021a12.32,12.32,0,0,0-6.435-5.715,4.686,4.686,0,0,1-.626-.183c-.122-.029-.251-.049-.366-.088a5.465,5.465,0,0,1-.625-.1,6.123,6.123,0,0,1-.666-.061c-.017,0-.031,0-.047,0-.148,0-.289-.012-.429-.024-.02,0-.04,0-.061,0h-.032l-.032,0-.032,0-.047,0-.048,0c-.028,0-.053,0-.08,0a2.653,2.653,0,0,1-.3.025.829.829,0,0,1-.088-.006c-.042,0-.082.006-.125.006l-.05,0a5.338,5.338,0,0,1-.631.045c-.072,0-.137-.01-.206-.013-.088,0-.172.013-.262.013-.159,0-.31-.011-.461-.023-.1.009-.2.023-.305.023-.156,0-.3-.011-.452-.022H313.3l42.128,85.532a9.7,9.7,0,0,0,5.826,5.511c.777.123,1.561.207,2.345.273a8.069,8.069,0,0,1,1.3.073,3.916,3.916,0,0,1,.746-.049h1.192a5.072,5.072,0,0,1,.9.092c.067-.009.133-.016.2-.028l14.553.27Z" transform="translate(-265.681 -227.847)"/></svg>